<svg id="visual" viewBox="0 0 900 600" width="900" height="600" xmlns="http://www.w3.org/2000/svg" xmlns:xlink="http://www.w3.org/1999/xlink" version="1.1"><rect x="0" y="0" width="900" height="600" fill="#FAFAFA"></rect><path d="M0 432L21.5 430.7C43 429.3 86 426.7 128.8 418.8C171.7 411 214.3 398 257.2 398.7C300 399.3 343 413.7 385.8 421C428.7 428.3 471.3 428.7 514.2 416.7C557 404.7 600 380.3 642.8 370.2C685.7 360 728.3 364 771.2 376.7C814 389.3 857 410.7 878.5 421.3L900 432L900 601L878.5 601C857 601 814 601 771.2 601C728.3 601 685.7 601 642.8 601C600 601 557 601 514.2 601C471.3 601 428.7 601 385.8 601C343 601 300 601 257.2 601C214.3 601 171.7 601 128.8 601C86 601 43 601 21.5 601L0 601Z" fill="#260d40"></path><path d="M0 448L21.5 448.5C43 449 86 450 128.8 451.3C171.7 452.7 214.3 454.3 257.2 456.8C300 459.3 343 462.7 385.8 456.3C428.7 450 471.3 434 514.2 434.5C557 435 600 452 642.8 449.2C685.7 446.3 728.3 423.7 771.2 421.2C814 418.7 857 436.3 878.5 445.2L900 454L900 601L878.5 601C857 601 814 601 771.2 601C728.3 601 685.7 601 642.8 601C600 601 557 601 514.2 601C471.3 601 428.7 601 385.8 601C343 601 300 601 257.2 601C214.3 601 171.7 601 128.8 601C86 601 43 601 21.5 601L0 601Z" fill="#543e69"></path><path d="M0 439L21.5 444.7C43 450.3 86 461.7 128.8 469C171.7 476.3 214.3 479.7 257.2 481.7C300 483.7 343 484.3 385.8 488.3C428.7 492.3 471.3 499.7 514.2 492.2C557 484.7 600 462.3 642.8 457.5C685.7 452.7 728.3 465.3 771.2 472.7C814 480 857 482 878.5 483L900 484L900 601L878.5 601C857 601 814 601 771.2 601C728.3 601 685.7 601 642.8 601C600 601 557 601 514.2 601C471.3 601 428.7 601 385.8 601C343 601 300 601 257.2 601C214.3 601 171.7 601 128.8 601C86 601 43 601 21.5 601L0 601Z" fill="#847395"></path><path d="M0 500L21.5 501C43 502 86 504 128.8 508.5C171.7 513 214.3 520 257.2 518C300 516 343 505 385.8 504.3C428.7 503.7 471.3 513.3 514.2 512.8C557 512.3 600 501.7 642.8 503.3C685.7 505 728.3 519 771.2 518.3C814 517.7 857 502.3 878.5 494.7L900 487L900 601L878.5 601C857 601 814 601 771.2 601C728.3 601 685.7 601 642.8 601C600 601 557 601 514.2 601C471.3 601 428.7 601 385.8 601C343 601 300 601 257.2 601C214.3 601 171.7 601 128.8 601C86 601 43 601 21.5 601L0 601Z" fill="#b7acc3"></path><path d="M0 564L21.5 558.2C43 552.3 86 540.7 128.8 541.3C171.7 542 214.3 555 257.2 557.7C300 560.3 343 552.7 385.8 550.8C428.7 549 471.3 553 514.2 556.3C557 559.7 600 562.3 642.8 562.2C685.7 562 728.3 559 771.2 558.7C814 558.3 857 560.7 878.5 561.8L900 563L900 601L878.5 601C857 601 814 601 771.2 601C728.3 601 685.7 601 642.8 601C600 601 557 601 514.2 601C471.3 601 428.7 601 385.8 601C343 601 300 601 257.2 601C214.3 601 171.7 601 128.8 601C86 601 43 601 21.5 601L0 601Z" fill="#ede9f2"></path></svg>