<svg id="visual" viewBox="0 0 900 600" width="900" height="600" xmlns="http://www.w3.org/2000/svg" xmlns:xlink="http://www.w3.org/1999/xlink" version="1.1"><rect x="0" y="0" width="900" height="600" fill="#fafafa"></rect><path d="M0 394L21.5 398.8C43 403.7 86 413.3 128.8 429.5C171.7 445.7 214.3 468.3 257.2 468.3C300 468.3 343 445.7 385.8 450C428.7 454.3 471.3 485.7 514.2 488C557 490.3 600 463.7 642.8 456.8C685.7 450 728.3 463 771.2 468.3C814 473.7 857 471.3 878.5 470.2L900 469L900 601L878.5 601C857 601 814 601 771.2 601C728.3 601 685.7 601 642.8 601C600 601 557 601 514.2 601C471.3 601 428.7 601 385.8 601C343 601 300 601 257.2 601C214.3 601 171.7 601 128.8 601C86 601 43 601 21.5 601L0 601Z" fill="#EDE9F2" stroke-linecap="round" stroke-linejoin="miter"></path></svg>